<svg width="33" height="33" fill="none" xmlns="http://www.w3.org/2000/svg"><rect width="32" height="32" rx="8" fill="#D9D9D9"/><path d="M16.138.1C7.311.085.133 7.209.098 16.06c-.03 8.774 6.972 15.755 15.426 16.03 9.191.3 16.3-6.962 16.566-15.45C32.38 7.434 24.97.113 16.138.1ZM16.08 31.27C7.684 31.266.91 24.466.913 16.041.923 7.7 7.753.915 16.138.92 24.48.924 31.26 7.744 31.27 16.105c.01 8.352-6.82 15.206-15.19 15.166Zm11.204-15.318A11.157 11.157 0 0 1 16.938 27.29a11.144 11.144 0 0 1-11.94-9.795C4.238 11.029 8.74 6.266 13.487 5.21c-.481.324-.923.603-1.33.928-1.925 1.536-3.094 3.515-3.496 5.945-.236 1.42-.108 2.794.555 4.085.441.854 1.07 1.517 2.042 1.758.982.245 1.768-.128 2.362-.88.864-1.09 1.384-2.326 1.29-3.75-.073-1.08-.515-2.018-1.163-2.867a9.17 9.17 0 0 0-1.67-1.709c-.127-.098-.117-.152-.019-.255.33-.354.658-.707.977-1.07.123-.143.211-.123.344-.02.432.348.751.79 1.06 1.252.064-.688-.176-1.292-.5-1.87-.084-.153-.103-.241.024-.379.673-.722 1.336-1.448 1.989-2.185.127-.147.191-.122.309.01a163.63 163.63 0 0 0 1.974 2.165c.122.128.142.211.044.373a3.861 3.861 0 0 0-.555 1.704c-.005.069-.034.142.04.23.171-.245.328-.49.5-.72.177-.241.393-.443.634-.624.098-.074.152-.064.23.02.349.387.697.77 1.056 1.148.147.157-.015.182-.084.24a9.164 9.164 0 0 0-1.978 2.176c-.555.859-.918 1.801-.845 2.833.103 1.463.643 2.759 1.768 3.746.805.712 2.023.662 2.94-.074.875-.707 1.326-1.664 1.523-2.735.456-2.484-.25-4.693-1.68-6.711-.75-1.06-1.728-1.886-2.822-2.578-.079-.049-.153-.098-.266-.167 4.066.84 8.47 4.822 8.543 10.723ZM8.15 5.103l-.564-.52.746.19.157-.765.157.736.756-.191-.54.55.535.49-.736-.235-.148.78-.21-.746-.693.231.54-.52Zm4.704-2.043-.565-.52.746.191.157-.766.158.737.756-.192-.545.545.535.491-.737-.235-.147.78-.211-.746-.692.23.545-.515Zm5.577-.04-.565-.52.747.192.157-.766.157.736.756-.191-.54.55.535.49-.736-.235-.148.78-.21-.745-.693.23.54-.52Zm4.777 2.083-.564-.52.746.19.157-.765.157.736.756-.191-.54.55.535.49-.736-.235-.148.78-.21-.746-.693.231.54-.52Zm3.197 3.387.746.192.157-.766.157.736.756-.191-.545.545.535.49-.736-.235-.148.78-.21-.746-.693.231.545-.52-.565-.516Zm2.42 5.651-.565-.52.747.191.157-.765.157.736.756-.191-.545.544.535.491-.736-.235-.148.78-.21-.746-.693.23.545-.515Zm.756 5.308-.545.545.535.49-.736-.235-.148.78-.21-.746-.693.231.545-.52-.565-.52.747.19.157-.765.157.736.756-.186Zm-2.789 4.87-.545.545.535.491-.736-.236-.147.781-.211-.746-.693.23.545-.52-.57-.515.747.191.157-.766.157.737.761-.192Zm-4.276 3.295-.545.545.535.49-.736-.235-.148.78-.21-.746-.693.231.545-.52-.57-.52.747.19.157-.765.157.736.761-.186Zm-5.558 1.428-.545.545.535.491-.736-.235-.147.78-.212-.746-.692.23.545-.52-.564-.52.746.191.157-.766.157.737.756-.187Zm-5.67-1.468-.546.545.536.491-.737-.235-.147.78-.211-.746-.693.23.546-.52-.565-.52.746.191.157-.766.157.737.756-.187Zm-4.257-3.29-.545.546.535.49-.737-.235-.147.78-.211-.745-.692.23.545-.52-.565-.52.746.19.158-.765.157.736.756-.186Zm-2.715-4.816-.545.545.535.491-.737-.235-.147.78-.211-.746-.692.23.545-.52-.565-.52.746.191.157-.765.158.736.756-.187Zm-2.323-4.83.545-.521-.564-.52.746.19.157-.765.157.736.756-.191-.545.545.535.49-.736-.235-.147.78-.211-.745-.693.235Zm3.594-5.176-.736-.235-.147.78-.212-.746-.692.23.545-.52-.565-.52.747.191.157-.765.157.736.756-.191-.545.55.535.49Z" fill="#4F4F4F"/></svg>